<?xml version="1.0" standalone="no"?>
<!DOCTYPE svg PUBLIC "-//W3C//DTD SVG 20010904//EN"
 "http://www.w3.org/TR/2001/REC-SVG-20010904/DTD/svg10.dtd">
<svg version="1.0" xmlns="http://www.w3.org/2000/svg"
 width="500.000000pt" height="500.000000pt" viewBox="0 0 500.000000 500.000000"
 preserveAspectRatio="xMidYMid meet">

<g transform="translate(0.000000,500.000000) scale(0.100000,-0.100000)"
fill="#000000" stroke="none">
<path d="M3228 4460 c-123 -21 -279 -91 -387 -175 -213 -163 -350 -425 -351
-667 0 -74 1 -78 23 -79 188 -12 409 92 559 261 120 136 208 330 230 510 11
92 5 161 -15 159 -7 -1 -33 -5 -59 -9z"/>
<path d="M3119 3491 c-86 -16 -201 -51 -331 -102 -196 -75 -243 -86 -317 -71
-34 7 -124 37 -201 67 -203 79 -284 99 -410 98 -353 -1 -690 -221 -860 -560
-96 -193 -135 -378 -135 -643 1 -520 196 -1052 551 -1507 238 -304 427 -384
689 -290 55 19 141 51 191 71 185 72 373 72 557 0 208 -81 261 -96 343 -102
187 -11 339 72 505 275 164 200 335 495 408 705 l30 86 -31 13 c-51 21 -169
102 -230 158 -115 106 -208 259 -249 412 -31 115 -36 292 -11 410 42 203 167
398 336 526 34 26 65 50 70 54 14 12 -90 133 -166 194 -123 98 -249 156 -413
191 -85 18 -263 26 -326 15z"/>
</g>
</svg>
