<?xml version="1.0" standalone="no"?>
<!DOCTYPE svg PUBLIC "-//W3C//DTD SVG 20010904//EN"
 "http://www.w3.org/TR/2001/REC-SVG-20010904/DTD/svg10.dtd">
<svg version="1.0" xmlns="http://www.w3.org/2000/svg"
 width="500.000000pt" height="500.000000pt" viewBox="0 0 500.000000 500.000000"
 preserveAspectRatio="xMidYMid meet">

<g transform="translate(0.000000,500.000000) scale(0.100000,-0.100000)"
fill="#000000" stroke="none">
<path d="M1643 4262 c-133 -47 -224 -176 -269 -377 -25 -115 -23 -357 5 -532
11 -72 21 -138 21 -146 0 -10 -33 -23 -112 -42 -312 -77 -521 -178 -663 -322
-135 -136 -165 -287 -90 -451 60 -132 345 -362 448 -362 43 0 77 34 77 78 0
41 -16 56 -126 122 -100 60 -220 173 -249 235 -47 102 -20 192 88 290 68 62
247 156 382 200 71 23 269 75 287 75 3 0 9 -15 13 -32 4 -18 38 -126 76 -241
l70 -207 -45 -83 c-60 -111 -167 -354 -221 -503 -160 -440 -190 -819 -82
-1031 40 -77 92 -129 164 -165 89 -43 200 -50 324 -19 150 37 422 187 458 253
14 24 14 30 -1 61 -10 22 -28 38 -47 45 -34 12 -51 5 -201 -86 -201 -123 -380
-160 -474 -99 -151 99 -161 438 -25 863 47 148 112 310 181 457 l51 107 127
-247 c230 -451 450 -770 724 -1051 222 -227 392 -344 584 -402 97 -30 224 -25
292 10 141 72 220 202 251 411 19 129 7 405 -25 574 -61 320 -178 673 -333
998 -58 121 -70 133 -127 129 -30 -2 -66 -42 -66 -74 0 -16 33 -104 74 -196
187 -424 293 -793 317 -1112 22 -278 -17 -462 -115 -548 -68 -60 -189 -57
-319 6 -403 196 -900 834 -1232 1584 -25 55 -45 104 -45 109 0 21 272 445 355
553 14 18 25 18 222 12 510 -18 908 -82 1288 -207 159 -53 350 -141 450 -208
79 -52 179 -153 205 -206 31 -64 28 -149 -8 -206 -45 -71 -126 -133 -264 -204
-70 -36 -132 -75 -138 -85 -17 -32 -11 -70 16 -97 35 -35 77 -28 198 31 117
57 241 149 301 224 111 139 118 305 19 459 -226 353 -1033 626 -1956 661 -114
5 -173 11 -175 18 -6 17 365 393 466 473 242 192 425 281 577 281 125 0 186
-46 224 -169 23 -74 27 -261 9 -386 -13 -86 -6 -113 35 -140 33 -22 81 -12
102 21 28 41 46 205 41 359 -5 156 -24 226 -87 324 -146 228 -465 214 -840
-38 -203 -136 -461 -379 -668 -627 l-92 -111 -83 -7 c-45 -3 -156 -14 -245
-23 -135 -13 -165 -14 -172 -3 -13 20 -38 213 -45 335 -14 268 34 437 146 513
30 21 43 23 119 20 74 -3 95 -8 163 -40 43 -21 118 -65 168 -99 105 -72 138
-79 176 -35 38 44 31 77 -29 131 -69 62 -196 139 -293 177 -103 41 -249 50
-332 20z m287 -1177 c0 -2 -49 -79 -110 -171 -126 -191 -107 -191 -166 0 -43
137 -43 144 -1 151 104 18 277 31 277 20z"/>
<path d="M2412 2664 c-162 -81 -176 -309 -25 -404 196 -125 437 80 342 290
-39 86 -103 130 -204 137 -51 4 -68 0 -113 -23z"/>
</g>
</svg>
