<?xml version="1.0" standalone="no"?>
<!DOCTYPE svg PUBLIC "-//W3C//DTD SVG 20010904//EN"
 "http://www.w3.org/TR/2001/REC-SVG-20010904/DTD/svg10.dtd">
<svg version="1.0" xmlns="http://www.w3.org/2000/svg"
 width="500.000000pt" height="500.000000pt" viewBox="0 0 500.000000 500.000000"
 preserveAspectRatio="xMidYMid meet">

<g transform="translate(0.000000,500.000000) scale(0.100000,-0.100000)"
fill="#000000" stroke="none">
<path d="M1020 3696 c0 -2 -29 -140 -65 -306 -36 -166 -65 -304 -65 -306 0 -9
500 -3 582 6 217 25 337 110 375 266 20 82 8 158 -36 219 -36 51 -133 101
-221 115 -61 9 -570 15 -570 6z"/>
<path d="M2306 3683 c-10 -31 -126 -577 -126 -592 0 -11 51 -12 303 -8 166 3
322 10 347 15 102 23 164 54 221 111 66 66 89 124 89 220 -1 144 -89 233 -260
260 -36 6 -178 11 -317 11 -231 0 -252 -1 -257 -17z"/>
<path d="M3362 2852 c-34 -163 -63 -300 -62 -304 0 -5 128 -8 285 -8 222 0
303 4 363 16 210 43 319 163 310 340 -6 125 -76 203 -213 239 -46 12 -120 15
-340 15 l-280 0 -63 -298z"/>
<path d="M789 2478 l-65 -303 293 -3 c230 -2 308 1 365 13 187 39 293 143 306
301 10 125 -50 216 -174 265 -56 22 -72 23 -359 27 l-301 4 -65 -304z"/>
<path d="M2140 2777 c0 -1 -29 -137 -65 -302 -36 -164 -65 -301 -65 -302 0 -2
132 -3 293 -3 317 0 381 8 485 55 102 47 159 118 182 228 22 111 -22 218 -112
271 -81 47 -148 56 -445 56 -150 0 -273 -1 -273 -3z"/>
<path d="M3246 2274 c-9 -33 -126 -579 -126 -593 0 -21 604 -10 683 12 179 52
277 163 277 315 0 87 -16 129 -70 183 -37 37 -63 52 -116 70 -63 20 -94 22
-355 27 -273 4 -287 3 -293 -14z"/>
<path d="M1966 1821 c-14 -23 -134 -596 -126 -605 5 -4 145 -6 312 -3 238 3
315 8 360 20 132 38 211 95 255 184 23 47 28 71 28 133 0 99 -29 161 -99 207
-89 60 -121 66 -437 71 -199 3 -289 1 -293 -7z"/>
</g>
</svg>
