<?xml version="1.0" standalone="no"?>
<!DOCTYPE svg PUBLIC "-//W3C//DTD SVG 20010904//EN"
 "http://www.w3.org/TR/2001/REC-SVG-20010904/DTD/svg10.dtd">
<svg version="1.0" xmlns="http://www.w3.org/2000/svg"
 width="500.000000pt" height="500.000000pt" viewBox="0 0 500.000000 500.000000"
 preserveAspectRatio="xMidYMid meet">

<g transform="translate(0.000000,500.000000) scale(0.100000,-0.100000)"
fill="#000000" stroke="none">
<path d="M1258 3747 c-280 -183 -508 -334 -507 -337 0 -3 157 -130 350 -284
192 -153 348 -283 347 -287 -2 -5 -158 -133 -348 -285 -190 -152 -346 -279
-347 -282 -2 -7 1002 -665 1021 -669 6 -2 170 130 364 292 195 162 358 295
362 295 4 0 167 -133 362 -295 194 -162 358 -294 364 -292 19 4 1023 662 1021
669 -1 3 -157 130 -347 282 -190 152 -346 280 -348 285 -1 4 155 134 347 287
193 154 350 281 350 284 1 6 -1006 664 -1022 668 -7 1 -172 -130 -367 -293
-195 -162 -357 -295 -360 -295 -3 0 -165 133 -360 295 -195 162 -359 295 -365
294 -5 0 -238 -150 -517 -332z m1761 -587 c281 -173 510 -317 510 -320 0 -9
-1016 -630 -1029 -630 -13 0 -1029 621 -1029 630 -1 7 1022 639 1031 637 3 -1
236 -144 517 -317z"/>
<path d="M2141 1774 c-194 -161 -358 -294 -364 -294 -5 0 -67 38 -137 84 -191
126 -170 127 -170 -7 l0 -114 511 -307 c281 -168 516 -306 522 -306 7 1 242
139 522 308 l510 307 3 113 c1 61 -1 112 -5 112 -4 0 -75 -45 -158 -99 l-150
-98 -49 41 c-342 285 -672 556 -676 555 -3 0 -164 -133 -359 -295z"/>
</g>
</svg>
