<?xml version="1.0" standalone="no"?>
<!DOCTYPE svg PUBLIC "-//W3C//DTD SVG 20010904//EN"
 "http://www.w3.org/TR/2001/REC-SVG-20010904/DTD/svg10.dtd">
<svg version="1.0" xmlns="http://www.w3.org/2000/svg"
 width="500.000000pt" height="500.000000pt" viewBox="0 0 500.000000 500.000000"
 preserveAspectRatio="xMidYMid meet">

<g transform="translate(0.000000,500.000000) scale(0.100000,-0.100000)"
fill="#000000" stroke="none">
<path d="M3355 4234 c-187 -27 -311 -53 -468 -99 -135 -39 -532 -384 -726
-630 -310 -393 -477 -837 -519 -1380 l-7 -90 -28 2 c-16 1 -35 7 -42 13 -21
18 -102 216 -129 318 -64 240 -60 494 14 780 11 46 18 92 15 103 -4 11 -20 26
-37 35 -29 15 -31 15 -60 -13 -42 -39 -136 -156 -185 -228 -94 -139 -174 -333
-215 -522 -30 -135 -32 -421 -4 -568 59 -315 207 -598 430 -820 129 -128 243
-211 396 -289 321 -165 682 -212 1030 -137 538 118 974 509 1138 1022 35 108
65 248 84 389 20 146 16 620 -6 800 -78 638 -284 1226 -454 1297 -35 14 -173
25 -227 17z"/>
</g>
</svg>
