<?xml version="1.0" standalone="no"?>
<!DOCTYPE svg PUBLIC "-//W3C//DTD SVG 20010904//EN"
 "http://www.w3.org/TR/2001/REC-SVG-20010904/DTD/svg10.dtd">
<svg version="1.0" xmlns="http://www.w3.org/2000/svg"
 width="500.000000pt" height="500.000000pt" viewBox="0 0 500.000000 500.000000"
 preserveAspectRatio="xMidYMid meet">

<g transform="translate(0.000000,500.000000) scale(0.100000,-0.100000)"
fill="#000000" stroke="none">
<path d="M2335 4169 c-202 -15 -443 -82 -624 -174 -126 -63 -283 -171 -376
-258 l-80 -75 25 -26 25 -25 85 75 c337 297 784 446 1217 406 136 -13 299 -47
398 -82 33 -12 106 -32 162 -45 56 -13 134 -38 175 -55 108 -46 109 -46 33 5
-206 137 -495 232 -779 255 -71 5 -136 9 -145 9 -9 -1 -61 -5 -116 -10z"/>
<path d="M3179 3879 c143 -95 334 -288 404 -409 l19 -31 -49 37 c-63 49 -157
92 -217 100 l-48 7 57 -54 c61 -57 212 -276 238 -345 8 -22 23 -76 32 -120 19
-91 33 -324 18 -309 -5 6 -21 27 -36 47 -28 37 -94 94 -101 87 -3 -2 5 -83 15
-179 22 -190 21 -267 -7 -405 -17 -87 -18 -89 -30 -59 -7 17 -19 36 -27 42
-12 10 -16 1 -25 -56 -38 -226 -135 -429 -235 -491 -44 -27 -59 -27 -55 1 6
42 -25 29 -90 -40 -37 -39 -76 -75 -88 -81 -19 -9 -21 -8 -16 14 l4 24 -48
-15 c-27 -8 -101 -24 -164 -35 -151 -28 -263 -23 -344 14 -70 32 -67 51 8 42
47 -5 49 -5 32 9 -24 19 -100 42 -190 56 -92 15 -123 29 -186 86 -179 164
-226 250 -237 434 -9 149 39 338 93 368 24 13 11 28 -43 46 -71 24 -129 20
-198 -13 -135 -65 -205 -183 -205 -346 0 -95 28 -186 85 -272 42 -63 42 -65
10 -28 -71 80 -125 225 -125 333 0 212 167 396 360 396 80 0 174 -40 240 -103
24 -22 46 -38 49 -35 3 3 6 47 5 97 -1 90 -2 94 -37 143 -50 70 -95 168 -108
239 -33 178 53 418 209 579 28 29 52 57 52 61 0 4 -37 5 -82 2 -68 -4 -94 -12
-163 -46 -97 -48 -210 -148 -267 -236 l-39 -60 6 45 c4 25 11 59 15 77 10 39
3 43 -101 50 -150 11 -320 -44 -444 -144 -167 -136 -271 -324 -358 -653 -31
-114 -31 -120 -2 -72 14 23 27 42 29 42 2 0 -3 -23 -10 -51 -16 -60 -34 -295
-33 -419 l0 -85 18 63 c10 34 21 65 23 68 3 3 11 -32 18 -78 58 -399 258 -764
559 -1020 233 -198 504 -348 739 -408 105 -26 117 -25 60 7 -27 14 -46 28 -45
30 2 2 30 -6 63 -17 134 -47 378 -91 405 -75 5 4 -3 16 -18 29 l-27 23 145 6
c219 8 501 67 655 137 75 34 129 82 206 182 32 43 63 78 67 78 5 0 42 22 83
49 146 95 298 263 369 406 26 53 33 82 37 145 2 44 0 99 -7 123 -10 43 -9 49
63 213 85 196 95 233 103 363 5 98 -4 197 -33 334 l-17 77 -23 -56 c-13 -31
-27 -61 -31 -65 -4 -4 -8 61 -9 144 -1 119 -6 171 -22 240 -41 168 -115 306
-232 430 -63 68 -80 79 -80 52 0 -8 -21 8 -47 36 -48 51 -158 139 -174 139 -5
0 -9 -14 -9 -31 0 -27 17 -49 103 -138 95 -99 168 -190 211 -266 16 -28 16
-27 -11 5 -103 125 -303 321 -386 379 -66 45 -195 104 -307 141 -50 16 -96 30
-102 30 -5 0 31 -27 81 -61z"/>
<path d="M1101 3800 c-72 -99 -124 -245 -137 -386 l-7 -77 38 41 c49 55 145
127 217 163 l56 28 -34 38 c-43 47 -74 111 -89 182 l-11 56 -33 -45z"/>
<path d="M2014 3279 c-16 -27 -16 -167 1 -224 17 -61 77 -179 96 -191 6 -3 29
7 52 23 23 16 90 55 148 87 115 62 134 85 145 170 9 67 -6 78 -122 87 -54 4
-131 8 -170 9 -59 0 -78 4 -107 25 -22 14 -39 20 -43 14z"/>
<path d="M1882 2265 c3 -55 13 -122 22 -150 25 -72 83 -153 152 -208 l59 -48
110 6 c183 12 236 33 416 162 83 60 94 65 137 63 66 -3 70 -2 82 20 15 28 -2
79 -38 113 -53 51 -117 71 -223 72 -94 0 -98 -1 -177 -42 -101 -53 -161 -62
-263 -39 -74 16 -182 70 -248 123 l-34 27 5 -99z"/>
</g>
</svg>
